# xmcd
#
# Track frame offsets:
# 150
# 15577
# 31481
# 47331
# 67475
# 82055
# 99694
# 113559
# 133641
# 150783
# 173952
# 188874
# 199216
# 215259
# 231656
# 254241
# 275276
# 314306
#
# Disc length: 4403 seconds
#
#
# Revision: 0
# Processed by: cddbd v1.5.2PL0 Copyright (c) Steve Scherf et al.
# Submitted via: FreeRIP 2.90 
#
DISCID=05113112
DTITLE=Tom Waits - The heart of saturday night
DYEAR=1900
DGENRE=Blues
TTITLE0=New coat of paint
TTITLE1=San Diego serenade
TTITLE2=Semi suite
TTITLE3=Shiver me timbers
TTITLE4=Diamonds in my windshield (Looking for her)
TTITLE5=The heart of Saturday Night
TTITLE6=Fumblin´with the blues
TTITLE7=Please call me baby
TTITLE8=Depot, depot
TTITLE9=Drunk on the moon
TTITLE10=The Ghost of Saturday night
TTITLE11=Cinny´s waltz
TTITLE12=Muriel
TTITLE13=I never talk to strangers
TTITLE14=Medley: Jack and Neal - California, Here I come
TTITLE15=A sight for sore
TTITLE16=Potter´s field
TTITLE17=Barber shop
EXTD=
EXTT0=
EXTT1=
EXTT2=
EXTT3=
EXTT4=
EXTT5=
EXTT6=
EXTT7=
EXTT8=
EXTT9=
EXTT10=
EXTT11=
EXTT12=
EXTT13=
EXTT14=
EXTT15=
EXTT16=
EXTT17=
PLAYORDER=
